<svg width="106" height="31" viewBox="0 0 106 31" fill="none" xmlns="http://www.w3.org/2000/svg">
<path d="M38.1679 13.499V5.26165C38.1679 4.92657 38.247 4.62407 38.4053 4.35415C38.5728 4.07491 38.7915 3.85618 39.0615 3.69795C39.3407 3.53041 39.6479 3.44664 39.9829 3.44664H46.3913C46.7264 3.44664 47.0336 3.53041 47.3128 3.69795C47.592 3.85618 47.8108 4.07491 47.969 4.35415C48.1365 4.62407 48.2203 4.92657 48.2203 5.26165V13.499H46.6985V9.98069H39.6758V13.499H38.1679ZM39.6758 8.47283H46.6985V5.30354C46.6985 5.21046 46.6659 5.13135 46.6008 5.06619C46.5356 4.99173 46.4565 4.9545 46.3634 4.9545H40.0248C39.9318 4.9545 39.848 4.99173 39.7735 5.06619C39.7084 5.13135 39.6758 5.21046 39.6758 5.30354V8.47283ZM49.6854 13.499V3.43268H51.1933V11.9912H59.7378V13.499H49.6854ZM60.4121 13.499V3.4606H68.6355C68.9706 3.4606 69.2777 3.54437 69.557 3.71191C69.8362 3.87945 70.0549 4.10284 70.2132 4.38207C70.3807 4.652 70.4645 4.94984 70.4645 5.27562V8.09587C70.4645 8.43095 70.3807 8.7381 70.2132 9.01734C70.0549 9.28726 69.8362 9.50599 69.557 9.67353C69.2777 9.83177 68.9706 9.91088 68.6355 9.91088L61.92 9.92484V13.499H60.4121ZM62.269 8.38906H68.6076C68.7007 8.38906 68.7798 8.35648 68.8449 8.29133C68.9101 8.22618 68.9427 8.14706 68.9427 8.05398V5.3175C68.9427 5.22442 68.9101 5.14531 68.8449 5.08015C68.7798 5.00569 68.7007 4.96846 68.6076 4.96846H62.269C62.1759 4.96846 62.0922 5.00569 62.0177 5.08015C61.9525 5.14531 61.92 5.22442 61.92 5.3175V8.05398C61.92 8.14706 61.9525 8.22618 62.0177 8.29133C62.0922 8.35648 62.1759 8.38906 62.269 8.38906ZM71.3303 13.499V3.44664H72.8382V7.7189H80.0982V3.44664H81.6201V13.499H80.0982V9.22676H72.8382V13.499H71.3303ZM83.0802 13.499V5.26165C83.0802 4.92657 83.1594 4.62407 83.3176 4.35415C83.4851 4.07491 83.7039 3.85618 83.9738 3.69795C84.253 3.53041 84.5602 3.44664 84.8953 3.44664H91.3037C91.6387 3.44664 91.9459 3.53041 92.2251 3.69795C92.5044 3.85618 92.7231 4.07491 92.8813 4.35415C93.0489 4.62407 93.1326 4.92657 93.1326 5.26165V13.499H91.6108V9.98069H84.5881V13.499H83.0802ZM84.5881 8.47283H91.6108V5.30354C91.6108 5.21046 91.5782 5.13135 91.5131 5.06619C91.4479 4.99173 91.3688 4.9545 91.2757 4.9545H84.9371C84.8441 4.9545 84.7603 4.99173 84.6858 5.06619C84.6207 5.13135 84.5881 5.21046 84.5881 5.30354V8.47283ZM38.14 27.499V17.4466H39.9411L46.6706 25.4606V17.4466H48.1924V27.499H46.3913L39.6479 19.4711V27.499H38.14ZM49.6448 27.499V17.4466H58.8595V18.9545H51.1667V21.7189H57.3517V23.2268H51.1667V25.9912H58.8595V27.499H49.6448ZM61.9538 27.499C61.6187 27.499 61.3115 27.4199 61.0323 27.2617C60.7624 27.0941 60.5436 26.8754 60.3761 26.6055C60.2179 26.3262 60.1388 26.0191 60.1388 25.684V17.4466H61.6466V25.6421C61.6466 25.7352 61.6792 25.819 61.7443 25.8934C61.8188 25.9586 61.9026 25.9912 61.9957 25.9912H68.3342C68.4273 25.9912 68.5064 25.9586 68.5716 25.8934C68.6367 25.819 68.6693 25.7352 68.6693 25.6421V17.4466H70.1911V25.684C70.1911 26.0191 70.1074 26.3262 69.9398 26.6055C69.7816 26.8754 69.5629 27.0941 69.2836 27.2617C69.0044 27.4199 68.7019 27.499 68.3761 27.499H61.9538ZM79.8264 27.499L76.685 23.7433H78.6536L81.5856 27.2198V27.499H79.8264ZM71.589 27.499V17.4606H79.8125C80.1475 17.4606 80.4547 17.5444 80.7339 17.7119C81.0132 17.8795 81.2319 18.1028 81.3901 18.3821C81.5577 18.652 81.6414 18.9498 81.6414 19.2756V22.0959C81.6414 22.4309 81.5577 22.7381 81.3901 23.0173C81.2319 23.2873 81.0132 23.506 80.7339 23.6735C80.4547 23.8318 80.1475 23.9109 79.8125 23.9109L73.0969 23.9248V27.499H71.589ZM73.4459 22.3891H79.7845C79.8776 22.3891 79.9567 22.3565 80.0219 22.2913C80.087 22.2262 80.1196 22.1471 80.1196 22.054V19.3175C80.1196 19.2244 80.087 19.1453 80.0219 19.0802C79.9567 19.0057 79.8776 18.9685 79.7845 18.9685H73.4459C73.3529 18.9685 73.2691 19.0057 73.1946 19.0802C73.1295 19.1453 73.0969 19.2244 73.0969 19.3175V22.054C73.0969 22.1471 73.1295 22.2262 73.1946 22.2913C73.2691 22.3565 73.3529 22.3891 73.4459 22.3891ZM82.9984 27.499V19.2617C82.9984 18.9266 83.0776 18.6241 83.2358 18.3541C83.4033 18.0749 83.6221 17.8562 83.892 17.698C84.1712 17.5304 84.4784 17.4466 84.8134 17.4466H91.2218C91.5569 17.4466 91.8641 17.5304 92.1433 17.698C92.4225 17.8562 92.6413 18.0749 92.7995 18.3541C92.967 18.6241 93.0508 18.9266 93.0508 19.2617V27.499H91.529V23.9807H84.5063V27.499H82.9984ZM84.5063 22.4728H91.529V19.3035C91.529 19.2105 91.4964 19.1313 91.4313 19.0662C91.3661 18.9917 91.287 18.9545 91.1939 18.9545H84.8553C84.7623 18.9545 84.6785 18.9917 84.604 19.0662C84.5389 19.1313 84.5063 19.2105 84.5063 19.3035V22.4728ZM94.5159 27.499V17.4327H96.0238V25.9912H104.568V27.499H94.5159Z" fill="white"/>
<path fill-rule="evenodd" clip-rule="evenodd" d="M18.1505 1.99233C18.7722 1.07306 19.8243 0.46875 21.0176 0.46875C22.9277 0.46875 24.4761 2.01721 24.4761 3.92733V27.0732C24.4761 28.9833 22.9277 30.5318 21.0176 30.5318C19.7767 30.5318 18.6885 29.8783 18.0782 28.8967C21.1618 27.985 23.4118 25.1314 23.4118 21.7522V9.11508C23.4118 5.76237 21.1969 2.92698 18.1505 1.99233ZM14.8646 1.74618C13.4201 0.932777 11.7526 0.468763 9.97666 0.468763C4.46671 0.468763 0 4.93548 0 10.4454V20.5551C0 26.0651 4.46671 30.5318 9.97666 30.5318C11.8298 30.5318 13.5649 30.0265 15.0518 29.1463C11.3673 28.6971 8.51333 25.5579 8.51333 21.7522V9.11508C8.51333 5.374 11.2711 2.27702 14.8646 1.74618Z" fill="white"/>
</svg>
