<svg width="131" height="30" viewBox="0 0 131 30" fill="none" xmlns="http://www.w3.org/2000/svg">
<path d="M81.2253 19.5692C80.3571 19.5894 79.4939 19.4324 78.6884 19.1077C77.883 18.7831 77.1521 18.2977 76.5406 17.6811C75.929 17.0645 75.4495 16.3297 75.1315 15.5216C74.8134 14.7135 74.6634 13.8491 74.6906 12.9811C74.6682 12.1187 74.8213 11.2607 75.1405 10.4593C75.4598 9.65783 75.9386 8.92963 76.5479 8.3189C77.155 7.69787 77.8838 7.20895 78.6887 6.88278C79.4936 6.55662 80.3572 6.40024 81.2253 6.42346C82.0947 6.40203 82.9578 6.57557 83.7514 6.93134C84.5449 7.28711 85.2487 7.81607 85.8111 8.4794L84.6876 9.6029C84.2755 9.08196 83.7486 8.66329 83.148 8.37958C82.5474 8.09586 81.8894 7.95477 81.2253 7.96732C80.5781 7.95152 79.9344 8.0681 79.3338 8.30992C78.7331 8.55175 78.1883 8.91371 77.7325 9.37362C77.267 9.84832 76.9034 10.4132 76.6642 11.0336C76.425 11.654 76.3152 12.3167 76.3415 12.9811C76.3131 13.648 76.4218 14.3136 76.6611 14.9368C76.9004 15.5599 77.265 16.1273 77.7325 16.6038C78.1872 17.0652 78.7319 17.4281 79.3327 17.67C79.9336 17.912 80.5778 18.0277 81.2253 18.0101C81.96 18.0065 82.6845 17.8386 83.3457 17.5185C84.007 17.1985 84.5882 16.7344 85.0468 16.1605L86.2238 17.3069C85.628 18.0192 84.8779 18.5863 84.0303 18.9655C83.1506 19.3692 82.1932 19.5752 81.2253 19.5692ZM89.151 6.70624V19.2941H87.5307V6.70624H89.151ZM90.542 14.9835C90.5244 14.3802 90.626 13.7793 90.8411 13.2153C91.0562 12.6514 91.3805 12.1354 91.7955 11.6971C92.2061 11.2715 92.7009 10.9362 93.2483 10.7125C93.7957 10.4888 94.3838 10.3816 94.9749 10.3978C95.5639 10.3809 96.1498 10.4879 96.6948 10.7117C97.2399 10.9355 97.7319 11.2712 98.1391 11.6971C98.5582 12.1328 98.8857 12.6481 99.1023 13.2126C99.3189 13.7771 99.4202 14.3792 99.4001 14.9835C99.4224 15.588 99.3221 16.1908 99.1054 16.7556C98.8887 17.3204 98.56 17.8355 98.1391 18.27C97.7331 18.6974 97.2413 19.0341 96.6959 19.258C96.1506 19.4819 95.5641 19.588 94.9749 19.5692C94.3835 19.5873 93.7949 19.4809 93.2472 19.2571C92.6996 19.0333 92.205 18.697 91.7955 18.27C91.3805 17.8316 91.0562 17.3156 90.8411 16.7517C90.626 16.1877 90.5244 15.5868 90.542 14.9835ZM92.1623 14.9835C92.1251 15.8101 92.4163 16.6178 92.9725 17.2305C93.2297 17.5035 93.54 17.721 93.8844 17.8696C94.2287 18.0183 94.5998 18.095 94.9749 18.095C95.35 18.095 95.7211 18.0183 96.0654 17.8696C96.4098 17.721 96.7201 17.5035 96.9773 17.2305C97.5335 16.6178 97.8247 15.8101 97.7875 14.9835C97.8231 14.1617 97.5318 13.3593 96.9773 12.7518C96.7225 12.4748 96.413 12.2536 96.0683 12.1024C95.7236 11.9511 95.3513 11.873 94.9749 11.873C94.5985 11.873 94.2262 11.9511 93.8815 12.1024C93.5368 12.2536 93.2273 12.4748 92.9725 12.7518C92.418 13.3593 92.1267 14.1617 92.1623 14.9835ZM108.342 19.2941H106.814V18.0942H106.737C106.464 18.5427 106.073 18.9076 105.606 19.1489C105.121 19.4237 104.574 19.5685 104.016 19.5692C103.57 19.5982 103.122 19.5329 102.702 19.3775C102.282 19.2221 101.899 18.9802 101.578 18.6674C100.973 17.951 100.669 17.0277 100.73 16.0917V10.6882H102.343V15.9924C102.309 16.2795 102.341 16.5706 102.437 16.8434C102.532 17.1163 102.689 17.3638 102.894 17.5671C103.1 17.7705 103.349 17.9243 103.623 18.017C103.897 18.1096 104.188 18.1386 104.475 18.1018C104.785 18.1072 105.091 18.041 105.371 17.9084C105.651 17.7759 105.896 17.5805 106.088 17.3375C106.524 16.8125 106.754 16.1472 106.737 15.465V10.6882H108.358L108.342 19.2941ZM113.815 19.5692C113.265 19.5691 112.721 19.4502 112.221 19.2207C111.721 18.9912 111.277 18.6565 110.918 18.2394C110.115 17.3467 109.678 16.184 109.695 14.9835C109.669 13.7892 110.095 12.629 110.887 11.7353C111.243 11.3144 111.687 10.9766 112.188 10.7455C112.688 10.5144 113.233 10.3958 113.784 10.3978C114.387 10.3875 114.983 10.5267 115.519 10.8028C116.01 11.0449 116.427 11.4145 116.727 11.8728H116.795L116.757 10.6882V6.70624H118.37V19.2941H116.841V18.0942H116.772C116.473 18.5525 116.056 18.9221 115.565 19.1642C115.024 19.4428 114.423 19.582 113.815 19.5692ZM114.082 18.0942C114.451 18.1061 114.818 18.0346 115.155 17.8851C115.493 17.7355 115.792 17.5118 116.031 17.2305C116.566 16.6078 116.839 15.803 116.795 14.9835C116.832 14.1697 116.559 13.3721 116.031 12.7518C115.793 12.4686 115.494 12.2425 115.157 12.0904C114.819 11.9382 114.452 11.8639 114.082 11.8728C113.713 11.8671 113.346 11.9429 113.01 12.0949C112.673 12.2468 112.374 12.4711 112.133 12.7518C111.605 13.3721 111.332 14.1697 111.369 14.9835C111.326 15.7981 111.6 16.5977 112.133 17.2152C112.374 17.4959 112.673 17.7202 113.01 17.8721C113.346 18.0241 113.713 18.0999 114.082 18.0942Z" fill="#3F3D4A"/>
<path d="M19.882 19.5694C17.9802 19.5757 16.1525 18.8324 14.7949 17.5005C13.4372 16.1686 12.6591 14.3555 12.6289 12.4539C12.6591 10.5523 13.4372 8.73913 14.7949 7.40727C16.1525 6.0754 17.9802 5.33208 19.882 5.33835C20.7882 5.32326 21.6884 5.48922 22.5296 5.82651C23.3709 6.16379 24.1363 6.66562 24.7811 7.30257L23.3978 8.67065C22.4545 7.76243 21.1913 7.26263 19.882 7.27964C19.2041 7.27757 18.5325 7.41033 17.9064 7.67019C17.2802 7.93006 16.712 8.31184 16.2348 8.79334C15.7576 9.27484 15.3809 9.84642 15.1266 10.4749C14.8723 11.1033 14.7455 11.776 14.7536 12.4539C14.7455 13.1318 14.8723 13.8045 15.1266 14.4329C15.3809 15.0613 15.7576 15.6329 16.2348 16.1144C16.712 16.5959 17.2802 16.9777 17.9064 17.2376C18.5325 17.4974 19.2041 17.6302 19.882 17.6281C20.5498 17.6555 21.216 17.5425 21.8374 17.2963C22.4588 17.0501 23.0216 16.6763 23.4895 16.1989C24.1131 15.5263 24.488 14.6606 24.5518 13.7455H19.882V11.8119H26.4549C26.5266 12.2129 26.5599 12.6198 26.5543 13.0271C26.606 14.7044 25.9967 16.3348 24.8575 17.567C24.2165 18.233 23.4417 18.7557 22.5841 19.1008C21.7266 19.4459 20.8057 19.6056 19.882 19.5694Z" fill="#3F3D4A"/>
<path d="M36.7205 14.9836C36.7456 15.595 36.6468 16.2051 36.4302 16.7773C36.2135 17.3495 35.8835 17.8721 35.4598 18.3135C35.0361 18.7549 34.5275 19.1062 33.9647 19.3461C33.4018 19.5861 32.7963 19.7097 32.1844 19.7097C31.5725 19.7097 30.967 19.5861 30.4041 19.3461C29.8413 19.1062 29.3327 18.7549 28.9091 18.3135C28.4854 17.8721 28.1553 17.3495 27.9386 16.7773C27.722 16.2051 27.6233 15.595 27.6484 14.9836C27.6233 14.3723 27.722 13.7622 27.9386 13.1899C28.1553 12.6177 28.4854 12.0952 28.9091 11.6537C29.3327 11.2123 29.8413 10.8611 30.4041 10.6211C30.967 10.3812 31.5725 10.2575 32.1844 10.2575C32.7963 10.2575 33.4018 10.3812 33.9647 10.6211C34.5275 10.8611 35.0361 11.2123 35.4598 11.6537C35.8835 12.0952 36.2135 12.6177 36.4302 13.1899C36.6468 13.7622 36.7456 14.3723 36.7205 14.9836ZM34.7333 14.9836C34.767 14.6286 34.7262 14.2704 34.6134 13.9321C34.5007 13.5937 34.3185 13.2827 34.0785 13.0188C33.8385 12.755 33.5461 12.5442 33.2199 12.4C32.8938 12.2557 32.5411 12.1812 32.1844 12.1812C31.8278 12.1812 31.4751 12.2557 31.1489 12.4C30.8227 12.5442 30.5303 12.755 30.2903 13.0188C30.0504 13.2827 29.8682 13.5937 29.7554 13.9321C29.6426 14.2704 29.6018 14.6286 29.6355 14.9836C29.6018 15.3387 29.6426 15.6968 29.7554 16.0352C29.8682 16.3735 30.0504 16.6846 30.2903 16.9484C30.5303 17.2122 30.8227 17.423 31.1489 17.5673C31.4751 17.7115 31.8278 17.786 32.1844 17.786C32.5411 17.786 32.8938 17.7115 33.2199 17.5673C33.5461 17.423 33.8385 17.2122 34.0785 16.9484C34.3185 16.6846 34.5007 16.3735 34.6134 16.0352C34.7262 15.6968 34.767 15.3387 34.7333 14.9836Z" fill="#3F3D4A"/>
<path d="M46.8904 14.9836C46.9155 15.5949 46.8168 16.205 46.6001 16.7773C46.3835 17.3495 46.0534 17.872 45.6297 18.3134C45.206 18.7549 44.6975 19.1061 44.1346 19.3461C43.5718 19.586 42.9662 19.7097 42.3543 19.7097C41.7425 19.7097 41.1369 19.586 40.5741 19.3461C40.0112 19.1061 39.5027 18.7549 39.079 18.3134C38.6553 17.872 38.3252 17.3495 38.1086 16.7773C37.8919 16.205 37.7932 15.5949 37.8183 14.9836C37.7932 14.3722 37.8919 13.7621 38.1086 13.1899C38.3252 12.6176 38.6553 12.0951 39.079 11.6537C39.5027 11.2122 40.0112 10.861 40.5741 10.6211C41.1369 10.3811 41.7425 10.2574 42.3543 10.2574C42.9662 10.2574 43.5718 10.3811 44.1346 10.6211C44.6975 10.861 45.206 11.2122 45.6297 11.6537C46.0534 12.0951 46.3835 12.6176 46.6001 13.1899C46.8168 13.7621 46.9155 14.3722 46.8904 14.9836ZM44.9032 14.9836C44.9305 14.6317 44.8847 14.2781 44.7688 13.9448C44.6528 13.6114 44.4693 13.3057 44.2296 13.0467C43.9899 12.7877 43.6992 12.5811 43.3758 12.4398C43.0525 12.2985 42.7034 12.2255 42.3505 12.2255C41.9976 12.2255 41.6485 12.2985 41.3252 12.4398C41.0018 12.5811 40.7112 12.7877 40.4715 13.0467C40.2318 13.3057 40.0482 13.6114 39.9323 13.9448C39.8163 14.2781 39.7705 14.6317 39.7978 14.9836C39.7705 15.3354 39.8163 15.6891 39.9323 16.0224C40.0482 16.3557 40.2318 16.6614 40.4715 16.9204C40.7112 17.1794 41.0018 17.386 41.3252 17.5274C41.6485 17.6687 41.9976 17.7416 42.3505 17.7416C42.7034 17.7416 43.0525 17.6687 43.3758 17.5274C43.6992 17.386 43.9899 17.1794 44.2296 16.9204C44.4693 16.6614 44.6528 16.3557 44.7688 16.0224C44.8847 15.6891 44.9305 15.3354 44.9032 14.9836Z" fill="#3F3D4A"/>
<path d="M56.8057 10.6885V18.9123C56.8057 22.2904 54.7956 23.6814 52.4263 23.6814C51.5544 23.6862 50.7007 23.4315 49.974 22.9497C49.2472 22.4679 48.6802 21.7808 48.345 20.9758L50.1106 20.2116C50.2885 20.6802 50.6012 21.0856 51.0092 21.3767C51.4173 21.6677 51.9024 21.8315 52.4034 21.8471C53.932 21.8471 54.8644 20.9071 54.8644 19.1568V18.4995H54.8186C54.5128 18.8445 54.1358 19.1189 53.7135 19.3037C53.2911 19.4884 52.8337 19.5792 52.3728 19.5696C51.1566 19.5696 49.9902 19.0864 49.1302 18.2264C48.2702 17.3664 47.7871 16.2 47.7871 14.9838C47.7871 13.7676 48.2702 12.6012 49.1302 11.7412C49.9902 10.8812 51.1566 10.3981 52.3728 10.3981C52.8321 10.3896 53.2879 10.4793 53.7097 10.6612C54.1315 10.8431 54.5095 11.113 54.8186 11.4528H54.8874V10.6885H56.8057ZM55.0249 15.0144C55.053 14.6679 55.0111 14.3193 54.9016 13.9893C54.7921 13.6593 54.6174 13.3548 54.3877 13.0938C54.1581 12.8328 53.8783 12.6206 53.5649 12.47C53.2516 12.3194 52.9112 12.2334 52.5639 12.2171C52.2112 12.2298 51.8645 12.3126 51.5441 12.4606C51.2237 12.6086 50.936 12.8189 50.6977 13.0793C50.4594 13.3397 50.2753 13.6448 50.1561 13.9771C50.0369 14.3093 49.9851 14.6619 50.0036 15.0144C49.9872 15.3645 50.0407 15.7143 50.1611 16.0434C50.2815 16.3726 50.4663 16.6744 50.7047 16.9313C50.9431 17.1882 51.2303 17.395 51.5495 17.5396C51.8687 17.6842 52.2136 17.7637 52.5639 17.7735C52.9098 17.7612 53.2496 17.6789 53.5628 17.5316C53.876 17.3843 54.1561 17.175 54.3861 16.9164C54.6161 16.6578 54.7913 16.3552 54.9011 16.027C55.0109 15.6988 55.053 15.3517 55.0249 15.0067V15.0144Z" fill="#3F3D4A"/>
<path d="M60.3419 5.82727V19.2941H58.3242V5.82727H60.3419Z" fill="#3F3D4A"/>
<path d="M68.2879 16.497L69.8623 17.567C69.442 18.1943 68.8732 18.7081 68.2066 19.0628C67.5399 19.4174 66.796 19.602 66.0409 19.6C65.4402 19.6086 64.844 19.4952 64.2884 19.2667C63.7328 19.0382 63.2293 18.6994 62.8085 18.2707C62.3877 17.842 62.0582 17.3323 61.84 16.7726C61.6218 16.2129 61.5195 15.6147 61.5392 15.0143C61.4497 13.9821 61.7432 12.953 62.3638 12.1233C62.9843 11.2936 63.8884 10.7212 64.9038 10.5153C65.9193 10.3093 66.975 10.4843 67.8697 11.0067C68.7644 11.5292 69.4356 12.3626 69.7553 13.3481L69.9617 13.8755L63.8474 16.4053C64.0379 16.8335 64.3523 17.1949 64.75 17.4428C65.1478 17.6907 65.6107 17.8139 66.0791 17.7963C66.5275 17.7861 66.9659 17.6614 67.3525 17.434C67.7391 17.2066 68.0611 16.884 68.2879 16.497ZM63.4652 14.8461L67.5771 13.1494C67.4125 12.845 67.1632 12.5949 66.8593 12.4294C66.5554 12.2639 66.2101 12.1901 65.8651 12.217C65.5348 12.2317 65.2106 12.3114 64.9111 12.4516C64.6116 12.5917 64.3427 12.7896 64.1198 13.0338C63.8969 13.278 63.7244 13.5638 63.612 13.8748C63.4997 14.1858 63.4498 14.5158 63.4652 14.8461Z" fill="#3F3D4A"/>
</svg>
