<svg width="109" height="26" viewBox="0 0 109 26" fill="none" xmlns="http://www.w3.org/2000/svg">
	<path fill-rule="evenodd" clip-rule="evenodd" d="M13 26C20.1797 26 26 20.1797 26 13C26 5.8203 20.1797 0 13 0C5.8203 0 0 5.8203 0 13C0 20.1797 5.8203 26 13 26ZM24.0108 10.9191C23.3431 7.3642 20.9963 4.40148 17.8255 2.88593C17.1014 2.53984 16.7394 2.3668 16.687 2.4451C16.6347 2.5234 16.9462 2.80387 17.5694 3.3648C19.6764 5.26142 21.4124 8.27887 21.7842 9.58039C21.3167 9.93107 20.3815 10.3986 19.8348 10.5471C19.9307 11.3281 19.9811 12.137 19.9811 12.9652C19.9811 13.4668 19.97 13.9638 19.9468 14.4537C19.9333 14.7393 19.9265 14.8821 20.0175 14.9514C20.1086 15.0206 20.24 14.9774 20.5028 14.8909C21.2242 14.6536 21.8264 14.388 22.2924 14.1079C22.8806 13.7543 23.5319 13.272 23.8039 12.7824C24.0758 12.2929 24.1302 11.5552 24.0108 10.9191ZM12.1033 3.48028C12.1033 3.33188 12.1033 3.25767 12.0511 3.22298C11.999 3.18829 11.9335 3.21576 11.8024 3.27071C10.7508 3.71169 9.83574 4.6517 9.12895 6.08954C8.80297 6.75271 8.53205 7.50303 8.32044 8.32277C8.28427 8.46292 8.26618 8.53299 8.30496 8.57637C8.34375 8.61974 8.41659 8.60939 8.56227 8.58869C9.6729 8.43088 10.8638 8.33132 12.1033 8.29878V3.48028ZM12.1033 10.0958C10.9609 10.1275 9.8745 10.2189 8.87054 10.3594C8.41658 10.4228 8.18961 10.4546 8.03179 10.6238C7.87398 10.7931 7.85832 11.0198 7.82698 11.4733C7.79344 11.9587 7.77639 12.4565 7.77639 12.9645C7.77639 13.547 7.80162 14.1258 7.84971 14.6946C7.88166 15.0724 7.89763 15.2613 8.02759 15.3994C8.15755 15.5374 8.34614 15.5649 8.72331 15.6199C10.0261 15.8099 11.4717 15.9169 13 15.9169C13.1126 15.9169 13.2247 15.9163 13.3364 15.9152C13.5312 15.9131 13.6861 16.0839 13.6648 16.2775C13.5723 17.1169 12.8365 17.7136 11.9926 17.6834C10.6803 17.6364 9.31227 17.5288 8.25634 17.3664C8.25666 17.3678 8.25697 17.3692 8.25728 17.3706C7.85935 17.3091 7.4321 17.2384 7.1455 17.1783C6.8188 17.1098 6.42856 17.0144 6.11393 16.9344C5.95793 16.8947 5.82306 16.8594 5.72734 16.8341C5.67951 16.8215 5.64156 16.8114 5.61573 16.8045L5.61502 16.8043C5.32852 16.7235 5.05264 16.638 4.78832 16.548C3.72111 16.1846 2.79297 15.7317 2.11356 15.1847C2.07161 15.151 2.03015 15.1164 1.9893 15.0812C2.65169 18.6074 4.96613 21.5509 8.09816 23.0772C8.44437 23.2459 8.61747 23.3303 8.67209 23.2653C8.72671 23.2002 8.60856 23.0372 8.37227 22.7111C7.96912 22.1547 7.61387 21.5097 7.30692 20.8115C7.18376 20.5313 7.06701 20.2395 6.95711 19.9373C6.79356 19.4878 6.71178 19.263 6.83157 19.1189C6.95136 18.9748 7.19765 19.0158 7.69023 19.0979C7.85272 19.125 8.00712 19.1497 8.1375 19.1695C8.54343 19.231 8.8804 19.5103 9.03685 19.8898C9.07259 19.9766 9.10894 20.062 9.14589 20.146C9.56506 21.0995 10.0405 21.8316 10.5208 22.3098C11.0038 22.7907 11.405 22.9348 11.7027 22.9348C12.8779 22.9348 13.8607 22.1881 14.5874 20.3468C14.893 19.5724 15.127 18.6582 15.2951 17.6353C15.2922 17.6355 15.2893 17.6357 15.2864 17.6359C15.3912 17.0288 15.461 16.4556 15.5125 15.8178C15.5139 15.8177 15.5152 15.8176 15.5166 15.8174C15.5925 14.9186 15.6291 13.9625 15.6291 12.9645C15.6291 12.4197 15.6103 11.8851 15.5742 11.3638C14.577 11.426 13.303 11.4621 12.1062 11.4114V11.3834H12.1033V10.0958ZM5.79654 12.9645C5.79654 13.4671 5.81396 13.9687 5.84776 14.4657C5.86188 14.6733 5.86894 14.7771 5.8221 14.8411C5.79779 14.8743 5.76376 14.9005 5.7254 14.9154C5.65146 14.9442 5.55675 14.912 5.36735 14.8475C4.4071 14.5205 3.6945 14.1513 3.24004 13.7855C2.7775 13.4131 2.69455 13.142 2.69455 13.0002C2.69455 12.8617 2.77299 12.6005 3.20915 12.24C3.63926 11.8846 4.31631 11.523 5.23432 11.199C5.24664 11.1946 5.25899 11.1903 5.27137 11.1859C5.53956 11.0922 5.67366 11.0454 5.76656 11.1154C5.85947 11.1854 5.85105 11.3327 5.83422 11.6273C5.80909 12.0674 5.79654 12.5137 5.79654 12.9645ZM7.32079 5.35786C6.89516 6.22372 6.55946 7.19345 6.3127 8.23698C6.21692 8.642 6.16904 8.84451 6.04916 8.97175C5.92928 9.099 5.73037 9.15875 5.33255 9.27826C5.09222 9.35046 4.85995 9.42611 4.63634 9.50505C3.61079 9.86709 2.71837 10.3153 2.06488 10.8553C2.03946 10.8763 2.01424 10.8976 1.98924 10.9192C2.68815 7.19797 5.22683 4.12568 8.62465 2.6829C9.08211 2.48865 9.31084 2.39153 9.36121 2.46469C9.41157 2.53786 9.23061 2.72577 8.86867 3.10159C8.25069 3.74326 7.73631 4.51255 7.32079 5.35786ZM17.3706 22.7745C17.0163 23.1755 16.8392 23.3759 16.8915 23.4467C16.9439 23.5175 17.1747 23.4124 17.6362 23.2024C20.7186 21.7994 23.0536 19.0406 23.8791 15.6879C23.9399 15.4413 23.9702 15.3179 23.9089 15.2752C23.8475 15.2325 23.7373 15.3073 23.5167 15.4568C23.4187 15.5233 23.3188 15.5868 23.2179 15.6475C22.4947 16.0822 21.5853 16.4541 20.5479 16.7575C20.132 16.8791 19.924 16.9399 19.8009 17.0743C19.6778 17.2086 19.6354 17.4207 19.5505 17.8451C19.3127 19.0333 18.9678 20.1271 18.4942 21.0783C18.1781 21.7131 17.8044 22.2836 17.3706 22.7745Z" fill="white" />
	<path d="M41.3799 11.6056C45.0429 12.1019 47.7842 12.9526 47.7842 16.4502C47.7842 19.1442 45.5392 21.6019 41.1673 21.6019C36.559 21.6019 34.5503 18.6243 34.5503 15.5521H36.9135C36.9608 17.2064 37.8351 19.5223 41.1673 19.5223C44.4285 19.5223 45.3265 17.8445 45.3265 16.592C45.3265 15.1268 44.4048 14.3233 41.1436 13.9215C37.268 13.4489 35.1175 12.1019 35.1175 9.26603C35.1175 6.66651 37.3389 4.58689 41.1909 4.58689C45.2792 4.58689 47.0753 7.18641 47.1462 9.88046H44.8539C44.8539 8.41528 43.8613 6.66651 41.1436 6.66651C38.355 6.66651 37.5516 8.03716 37.5516 9.12424C37.5516 10.1404 38.0006 11.1566 41.3799 11.6056Z" fill="white" />
	<path d="M60.6406 15.1977C60.6406 15.5285 60.617 15.7648 60.5697 16.0248H51.5423C51.7077 17.9626 53.0311 19.5223 55.2289 19.5223C56.8595 19.5223 57.663 18.7188 58.0883 17.3245H60.4279C59.9316 19.5696 58.2774 21.6019 55.1816 21.6019C51.3768 21.6019 49.2972 18.7897 49.2972 15.3631C49.2972 11.7238 51.6604 9.12424 55.1343 9.12424C57.8284 9.12424 60.6406 10.8966 60.6406 15.1977ZM51.6604 14.1342H58.3719C58.2301 12.3618 57.0958 11.1093 55.2525 11.1093C52.9838 11.1093 51.9913 12.5036 51.6604 14.1342Z" fill="white" />
	<path d="M69.0139 9.12424C71.8025 9.12424 73.504 10.684 73.504 14.2288V21.4129H71.2353V14.7014C71.2353 11.8892 70.0301 11.1093 68.4467 11.1093C66.698 11.1093 64.8074 12.8817 64.8074 15.7648V21.4129H62.5387V9.31329H64.8074V10.1168C64.8074 10.6131 64.7601 11.1093 64.5474 11.7238C64.4765 11.9364 64.382 12.1728 64.5711 12.22C64.7129 12.2673 64.7838 12.1019 64.831 12.0073C65.3037 10.8257 66.8398 9.12424 69.0139 9.12424Z" fill="white" />
	<path d="M84.8514 4.39783H87.1201V21.4129H84.8514V20.3967C84.8514 19.9713 84.8987 19.6405 85.0877 19.1206C85.1586 18.9315 85.2768 18.7188 85.0405 18.6479C84.8987 18.6007 84.8278 18.7897 84.8041 18.8606C84.237 20.5621 82.63 21.6019 80.7394 21.6019C77.5964 21.6019 75.3986 18.9552 75.3986 15.3631C75.3986 11.771 77.5964 9.12424 80.7394 9.12424C82.6773 9.12424 84.2606 10.1877 84.8041 11.8183C84.8278 11.8892 84.8987 12.1255 85.0877 12.0546C85.3004 11.9837 85.1586 11.7474 85.0877 11.5583C84.8987 11.0621 84.8514 10.7076 84.8514 10.2586V4.39783ZM81.2121 19.5223C83.3626 19.5223 84.8514 17.6081 84.8514 15.3631C84.8514 13.118 83.3626 11.2039 81.2121 11.2039C78.8489 11.2039 77.6673 13.118 77.6673 15.3631C77.6673 17.6081 78.8489 19.5223 81.2121 19.5223Z" fill="white" />
	<path d="M101.767 21.4129L100.42 17.4427H92.7161L91.369 21.4129H88.6277L94.6775 4.77595H98.4587L104.508 21.4129H101.767ZM93.4014 15.3631H99.7348L96.9935 7.23368C96.8989 6.92646 96.8044 6.64288 96.7571 6.24113C96.7335 6.09934 96.7335 5.95755 96.5681 5.95755C96.4027 5.95755 96.4027 6.09934 96.379 6.24113C96.3318 6.64288 96.2372 6.92646 96.1427 7.23368L93.4014 15.3631Z" fill="white" />
	<path d="M108.476 21.4129H106.018V4.77595H108.476V21.4129Z" fill="white" />
</svg>
