<svg width="104" height="24" viewBox="0 0 104 24" fill="none" xmlns="http://www.w3.org/2000/svg">
<path fill-rule="evenodd" clip-rule="evenodd" d="M20.9996 0.67019V2.32827C20.9996 2.6976 20.6987 2.99846 20.3283 2.99846H18.6702C18.3009 2.99846 18 2.69872 18 2.32827V0.67019C18 0.299733 18.2997 0 18.6702 0H20.3283C20.6987 0 20.9996 0.299733 20.9996 0.67019ZM80.6571 6.49756C80.6571 5.64776 80.0285 5.0191 79.1786 5.0191C78.3288 5.0191 77.7002 5.66684 77.7002 6.49756C77.7002 7.32829 78.3288 7.97603 79.1786 7.97603C80.0285 7.97603 80.6571 7.34737 80.6571 6.49756ZM80.1924 9.70258H78.1661V20.1427H80.1924V9.70258ZM68.2734 5.14258H70.2986V13.2511H71.9601L74.6756 9.70481H77.0881L73.6002 14.3063L77.1891 20.145H74.8182L71.7378 15.1988H70.2986V20.145H68.2734V5.14258ZM29.9992 13.0468V13.0461L30.0014 13.0446C30.0014 17.1185 32.919 20.3224 37.1366 20.3224C40.2373 20.3224 42.5498 18.6194 43.5624 16.125L41.6966 15.1315C40.9871 16.9579 39.3459 18.2545 37.1344 18.2545C34.1348 18.2545 32.168 15.9229 32.168 13.0446C32.168 10.1662 34.1124 7.83459 37.1344 7.83459C39.283 7.83459 40.885 9.05149 41.6147 10.7747L43.5006 9.76209C42.4263 7.37096 40.1564 5.76901 37.1344 5.76901C32.9171 5.76901 29.9995 8.95231 29.9992 13.0461L29.998 13.0468H29.9992ZM44.1709 14.9316C44.1709 11.8086 46.4823 9.51959 49.6649 9.51959C52.8475 9.51959 55.1589 11.8086 55.1589 14.9316C55.1589 18.0547 52.8699 20.3246 49.6649 20.3246C46.4599 20.3246 44.1709 18.0547 44.1709 14.9316ZM49.6649 18.4622C51.6126 18.4622 53.1101 17.0028 53.1101 14.935C53.1101 12.8672 51.6092 11.4078 49.6649 11.4078C47.7206 11.4078 46.2196 12.8672 46.2196 14.935C46.2196 17.0028 47.7408 18.4622 49.6649 18.4622ZM61.2586 9.51959C58.0761 9.51959 55.7646 11.8086 55.7646 14.9316C55.7646 18.0547 58.0536 20.3246 61.2586 20.3246C64.4637 20.3246 66.7526 18.0547 66.7526 14.9316C66.7526 11.8086 64.4412 9.51959 61.2586 9.51959ZM64.7028 14.935C64.7028 17.0028 63.2052 18.4622 61.2575 18.4622C59.3334 18.4622 57.8123 17.0028 57.8123 14.935C57.8123 12.8672 59.3132 11.4078 61.2575 11.4078C63.2019 11.4078 64.7028 12.8672 64.7028 14.935ZM81.6699 14.9316C81.6699 11.8512 83.777 9.51959 86.9416 9.51959C90.1062 9.51959 91.9271 11.9321 91.9271 14.688V15.6422H83.7175C83.9813 17.6292 85.3195 18.5015 86.9607 18.5015C88.602 18.5015 89.6965 17.4889 90.022 16.5762L91.5825 17.407C91.1368 18.5632 89.7167 20.3246 86.9618 20.3246C83.758 20.3246 81.6699 17.9739 81.6699 14.9316ZM89.8211 13.9393C89.8009 12.6427 88.7075 11.3045 86.9226 11.3045C85.3823 11.3045 84.125 12.2161 83.7804 13.9393H89.8211ZM97.7681 13.6564C99.5328 13.6564 100.545 14.6689 100.545 16.0688L100.547 16.0677H100.55C100.55 17.426 99.6383 18.4386 97.7333 18.4386C95.9483 18.4386 94.956 17.2633 94.773 15.9251L93.0498 16.7356C93.3125 18.4195 94.9122 20.3246 97.7714 20.3246C100.972 20.3246 102.656 18.3769 102.656 16.0452C102.656 14.4433 101.887 13.2679 100.549 12.6C101.299 12.1925 102.21 11.2809 102.21 9.63971C102.21 7.53259 100.468 5.76787 97.7097 5.76787C94.9515 5.76787 93.5314 7.51351 93.2283 9.35681L94.9515 10.1482C95.0918 8.81011 95.9641 7.65383 97.6873 7.65383C99.3083 7.65383 100.1 8.74836 100.1 9.70257C100.1 11.0025 99.2072 11.8523 97.7681 11.8523H96.6735V13.6564H97.7681ZM23.9986 8.32851V6.67043C23.9986 6.29998 23.6977 6.00024 23.3273 6.00024H21.6692C21.2988 6.00024 20.999 6.29998 20.999 6.67043V8.32851C20.999 8.69897 21.2988 8.9987 21.6692 8.9987H23.3273C23.6977 8.9987 23.9986 8.69785 23.9986 8.32851ZM18.6449 6.90279V5.24471C18.6449 4.87426 18.3441 4.57452 17.9748 4.57452H16.3167C15.9462 4.57452 15.6465 4.87426 15.6465 5.24471V6.90279C15.6465 7.27325 15.9462 7.57298 16.3167 7.57298H17.9748C18.3452 7.57298 18.6449 7.27325 18.6449 6.90279ZM15.6703 12.0005H17.9997L17.9952 11.9983H20.3257C20.6973 11.9983 20.9971 12.298 20.9971 12.6685V17.3273C20.9971 17.6988 20.6962 17.9986 20.3257 17.9986H18.6677C18.2961 17.9986 17.9964 18.2983 17.9964 18.6688V20.3268C17.9964 20.6973 17.6966 20.997 17.3262 20.997H15.6681C15.2965 20.997 14.9968 21.2968 14.9968 21.6672V23.3253C14.9968 23.6969 14.697 23.9966 14.3266 23.9966H6.6671C6.29665 23.9966 5.99691 23.6957 5.99691 23.3253V21.6672C5.99691 21.2968 5.69718 20.997 5.32672 20.997H3.66865C3.29819 20.997 2.99846 20.6973 2.99846 20.3268V18.6688C2.99846 18.2983 2.69872 17.9986 2.32827 17.9986H0.67019C0.299733 17.9986 0 17.6977 0 17.3273V9.66777C0 9.29732 0.299733 8.99758 0.67019 8.99758H2.33276C2.70321 8.99758 3.00295 8.69785 3.00295 8.32739V6.67044C3.00295 6.29998 3.30268 6.00025 3.67314 6.00025H5.33121C5.70167 6.00025 6.0014 5.70051 6.0014 5.33006V3.67311C6.0014 3.30265 6.30114 3.00291 6.67159 3.00291H11.3304C11.7008 3.00291 12.0006 3.30265 12.0006 3.67311V8.33188C12.0006 8.70234 12.3003 9.00207 12.6708 9.00207H14.3288C14.7004 9.00207 15.0001 9.30181 15.0001 9.67226V11.3303C15.0001 11.7008 15.2999 12.0005 15.6703 12.0005ZM15.0001 18.6732C15.0001 18.3017 15.2999 18.0019 15.6703 18.0019L17.325 17.9997C17.6955 17.9997 17.9952 17.7 17.9952 17.3295V15.6703C17.9952 15.2998 17.6955 15.0001 17.325 15.0001H15.667C15.2976 15.0001 14.9968 14.7004 14.9968 14.3299V12.6718C14.9968 12.3014 14.6959 12.0005 14.3255 12.0005H12.6674C12.298 12.0005 11.9972 11.7008 11.9972 11.3303V9.67226C11.9972 9.30293 11.6975 9.00207 11.327 9.00207H9.66893C9.29847 9.00207 8.99874 8.70234 8.99874 8.33188V6.67381C8.99874 6.30335 8.699 6.00362 8.32855 6.00362H6.67047C6.30001 6.00362 6.00028 6.30335 6.00028 6.67381V8.33188C6.00028 8.70234 5.70055 9.00207 5.33009 9.00207H3.67201C3.30156 9.00207 3.00182 9.30181 3.00182 9.67226V17.3317C3.00182 17.7022 3.30156 18.0019 3.67201 18.0019H5.33009C5.69942 18.0019 6.00028 18.3017 6.00028 18.6721V20.3302C6.00028 20.7007 6.30001 21.0004 6.67047 21.0004H14.33C14.7004 21.0004 15.0001 20.7007 15.0001 20.3302V18.6732Z" fill="white"/>
</svg>
