<svg width="121" height="12" viewBox="0 0 121 12" fill="none" xmlns="http://www.w3.org/2000/svg">
<path fill-rule="evenodd" clip-rule="evenodd" d="M32.1822 0.223501V2.18364C32.1822 2.30406 32.2798 2.40225 32.3994 2.40225H41.1486C41.2655 2.40225 41.3658 2.30591 41.3658 2.18364C41.3658 1.95622 41.3646 1.5785 41.3635 1.20079C41.3623 0.823074 41.3612 0.445359 41.3612 0.217943C41.3612 0.0993712 41.2664 0.00488281 41.1486 0.00488281H32.3994C32.2798 0.00488281 32.1822 0.103076 32.1822 0.223501ZM31.2594 4.80137C31.1628 4.80137 31.114 4.91901 31.1821 4.98756L31.1812 4.98942L33.2472 7.07646C33.3292 7.15891 33.4396 7.20522 33.5555 7.20522H39.3487C39.4656 7.20522 39.5659 7.30157 39.5659 7.42384V9.38398C39.5659 9.50625 39.4665 9.60259 39.3487 9.60259H33.5601C33.4442 9.60259 33.3338 9.64891 33.2519 9.73135L31.1904 11.8138C31.1223 11.8823 31.1711 12 31.2677 12H39.0257C39.3727 12 39.7049 11.861 39.9497 11.6146L41.5685 9.98517C41.8123 9.73969 41.9495 9.40621 41.9495 9.05883V7.74991C41.9495 7.40068 41.8114 7.06627 41.5666 6.81894L39.9497 5.18673C39.7021 4.94125 39.3717 4.80137 39.0239 4.80137H31.2594Z" fill="white"/>
<path d="M116.397 8.53472L120.532 10.3902C120.611 10.4254 120.663 10.505 120.663 10.5921V11.7815C120.663 11.902 120.565 12.0002 120.445 12.0002H118.502C118.358 12.0002 118.219 11.9696 118.089 11.9131L109.95 8.27071C109.881 8.23922 109.864 8.14751 109.917 8.09379L111.861 6.12994C111.943 6.0475 112.053 6.00118 112.169 6.00118H118.066C118.186 6.00118 118.284 5.90299 118.284 5.78257V2.62282C118.284 2.5024 118.186 2.40421 118.066 2.40421H112.169C112.053 2.40421 111.943 2.35789 111.861 2.27544L109.803 0.193031C109.735 0.124482 109.784 0.00683594 109.881 0.00683594H117.862C118.132 0.00683594 118.392 0.116145 118.58 0.308824L120.367 2.11148C120.559 2.29953 120.663 2.56261 120.663 2.82939V5.57784C120.663 5.84926 120.554 6.10771 120.367 6.30039L118.771 7.90666C118.585 8.09471 118.323 8.20402 118.054 8.20402H116.467C116.28 8.20402 116.228 8.46247 116.397 8.53657V8.53472Z" fill="white"/>
<path d="M109.619 5.45639V2.94972C109.619 2.60234 109.482 2.26886 109.239 2.02338L107.624 0.391165C107.379 0.143832 107.047 0.00488281 106.7 0.00488281H96.2416C96.122 0.00488281 96.0244 0.103073 96.0244 0.223498V11.7814C96.0244 11.9019 96.122 12.0001 96.2416 12.0001H98.1889C98.3086 12.0001 98.4061 11.9019 98.4061 11.7814V8.49294C98.4061 8.2808 98.6233 8.13907 98.8156 8.22522L106.988 11.8861C107.154 11.9612 107.336 11.9991 107.518 11.9991H109.402C109.521 11.9991 109.619 11.9009 109.619 11.7805V10.5883C109.619 10.5022 109.568 10.4234 109.49 10.3882L105.354 8.53555C105.183 8.45866 105.237 8.20021 105.425 8.20021H106.892C107.238 8.20021 107.569 8.06219 107.814 7.81578L109.237 6.38366C109.482 6.13725 109.619 5.80377 109.619 5.45547V5.45639ZM107.023 6.00015H98.6233C98.5037 6.00015 98.4061 5.90196 98.4061 5.78154V2.62179C98.4061 2.50137 98.5037 2.40318 98.6233 2.40318H107.023C107.142 2.40318 107.24 2.50137 107.24 2.62179V5.78154C107.24 5.90196 107.142 6.00015 107.023 6.00015Z" fill="white"/>
<path d="M77.6622 2.40225H72.1534C72.0337 2.40225 71.9362 2.50044 71.9362 2.62087V11.7805C71.9362 11.9009 71.8386 11.9991 71.719 11.9991H69.7707C69.6511 11.9991 69.5536 11.9009 69.5536 11.7805V2.62087C69.5536 2.50044 69.456 2.40225 69.3364 2.40225H63.8275C63.7079 2.40225 63.6104 2.30406 63.6104 2.18363V0.223498C63.6104 0.103073 63.7079 0.00488281 63.8275 0.00488281H77.6631C77.7827 0.00488281 77.8803 0.103073 77.8803 0.223498V2.18363C77.8803 2.30406 77.7827 2.40225 77.6631 2.40225H77.6622Z" fill="white"/>
<path d="M93.0201 2.40303H82.216C82.0963 2.40303 81.9988 2.50122 81.9988 2.62164V4.5827C81.9988 4.70313 82.0963 4.80132 82.216 4.80132H91.8293C91.9489 4.80132 92.0465 4.89951 92.0465 5.01994V6.981C92.0465 7.10142 91.9489 7.19961 91.8293 7.19961H82.216C82.0963 7.19961 81.9988 7.2978 81.9988 7.41823V9.37929C81.9988 9.49972 82.0963 9.59791 82.216 9.59791H93.0201C93.1398 9.59791 93.2373 9.6961 93.2373 9.81652V11.7776C93.2373 11.898 93.1398 11.9962 93.0201 11.9962H79.8324C79.7128 11.9962 79.6152 11.898 79.6152 11.7776V0.220568C79.6152 0.100144 79.7128 0.00195312 79.8324 0.00195312H93.0201C93.1398 0.00195312 93.2373 0.100144 93.2373 0.220568V2.18163C93.2373 2.30206 93.1398 2.40025 93.0201 2.40025V2.40303Z" fill="white"/>
<path d="M59.5811 4.80137H50.924C50.8043 4.80137 50.7068 4.70318 50.7068 4.58275V2.62076C50.7068 2.50034 50.8043 2.40215 50.924 2.40215H61.7033C61.8238 2.40215 61.9205 2.30581 61.9205 2.18539C61.9205 1.7287 61.9186 0.674525 61.9177 0.218766C61.9177 0.0983415 61.8202 0.00292969 61.7005 0.00292969H51.247C50.901 0.00292969 50.5697 0.140954 50.3249 0.38736L48.7052 2.01772C48.4604 2.26413 48.3232 2.59761 48.3232 2.94591V4.25761C48.3232 4.60591 48.4604 4.93939 48.7052 5.1858L50.3249 6.81616C50.5697 7.06256 50.901 7.20059 51.247 7.20059H59.9041C60.0238 7.20059 60.1213 7.29878 60.1213 7.4192V9.38119C60.1213 9.50162 60.0238 9.59981 59.9041 9.59981H49.1248C49.0043 9.59981 48.9076 9.69615 48.9076 9.81657C48.9076 10.2733 48.9095 11.3274 48.9104 11.7832C48.9104 11.9036 49.0079 11.999 49.1276 11.999H59.5811C59.9271 11.999 60.2584 11.861 60.5032 11.6146L62.1229 9.98424C62.3677 9.73783 62.5048 9.40435 62.5048 9.05605V7.74435C62.5048 7.39605 62.3677 7.06256 62.1229 6.81616L60.5032 5.1858C60.2584 4.93939 59.9271 4.80137 59.5811 4.80137Z" fill="white"/>
<path d="M19.7509 7.20157H28.408C28.5277 7.20157 28.6252 7.29976 28.6252 7.42018V9.38217C28.6252 9.5026 28.5277 9.60079 28.408 9.60079H17.6287C17.5082 9.60079 17.4115 9.69713 17.4115 9.81755C17.4115 10.2742 17.4134 11.3284 17.4143 11.7842C17.4143 11.9046 17.5118 12 17.6315 12H28.085C28.431 12 28.7623 11.862 29.0071 11.6156L30.6268 9.98522C30.8716 9.73881 31.0088 9.40533 31.0088 9.05703V7.74533C31.0088 7.39703 30.8716 7.06354 30.6268 6.81714L29.0071 5.18678C28.7623 4.94037 28.431 4.80235 28.085 4.80235H19.4279C19.3082 4.80235 19.2107 4.70416 19.2107 4.58373V2.62174C19.2107 2.50132 19.3082 2.40313 19.4279 2.40313H30.2072C30.3277 2.40313 30.4244 2.30679 30.4244 2.18636C30.4244 1.72968 30.4225 0.675504 30.4216 0.219745C30.4216 0.0993209 30.3241 0.00390625 30.2044 0.00390625H19.7509C19.4049 0.00390625 19.0736 0.14193 18.8288 0.388337L17.2091 2.0187C16.9643 2.2651 16.8271 2.59859 16.8271 2.94689V4.25859C16.8271 4.60689 16.9643 4.94037 17.2091 5.18678L18.8288 6.81714C19.0736 7.06354 19.4049 7.20157 19.7509 7.20157Z" fill="white"/>
<path d="M46.2123 11.9991H44.2641C44.1444 11.9991 44.0469 11.9009 44.0469 11.7805V0.223498C44.0469 0.103073 44.1444 0.00488281 44.2641 0.00488281H46.2123C46.3319 0.00488281 46.4295 0.103073 46.4295 0.223498V11.7805C46.4295 11.9009 46.3319 11.9991 46.2123 11.9991Z" fill="white"/>
<path d="M11.7272 0H2.92283C2.5768 0 2.24458 0.138949 1.99978 0.385355L0.381 2.01849C0.137124 2.2649 0 2.59838 0 2.94576V11.7812C0 11.9016 0.0975517 11.9998 0.217189 11.9998H2.16451C2.28415 11.9998 2.3817 11.9016 2.3817 11.7812V8.42043C2.3817 8.3 2.47925 8.20181 2.59889 8.20181H12.0511C12.1708 8.20181 12.2683 8.3 12.2683 8.42043V11.7812C12.2683 11.9016 12.3659 11.9998 12.4855 11.9998H14.4328C14.5525 11.9998 14.65 11.9016 14.65 11.7812V2.94576C14.65 2.59838 14.5129 2.26397 14.269 2.01849L12.6502 0.385355C12.4054 0.138949 12.0732 0 11.7272 0ZM12.0511 6.00454H2.59889C2.47925 6.00454 2.3817 5.90634 2.3817 5.78592V3.78688C2.3817 3.67109 2.42679 3.56085 2.50778 3.47841L3.44095 2.53261C3.52285 2.45017 3.63329 2.40293 3.74924 2.40293H10.8999C11.0158 2.40293 11.1272 2.44924 11.2082 2.53261L12.1413 3.47841C12.2223 3.55992 12.2674 3.67109 12.2674 3.78688V5.78592C12.2674 5.90634 12.1699 6.00454 12.0502 6.00454H12.0511Z" fill="white"/>
</svg>
