<svg width="4270" height="920" viewBox="0 0 4270 920" fill="none" xmlns="http://www.w3.org/2000/svg">
<circle cx="460" cy="460.229" r="433" fill="white"/>
<path fill-rule="evenodd" clip-rule="evenodd" d="M462.971 0.0100098C715.28 1.61344 920 207.32 920 460C920 713.672 713.672 920 460 920C207.319 920 1.61319 715.281 0.00976562 462.971L0 460C6.62865e-07 206.329 206.328 0.000246734 460 0.000244141L462.971 0.0100098ZM872.372 456.23C859.337 479.556 842.045 502.913 820.523 525.993L820.617 526.088L818.635 528.182C753.601 596.894 656.866 656.861 546.269 697.032C459.702 728.541 371.78 745.456 291.714 745.977L287.906 745.99C231.695 745.99 182.462 737.82 141.88 722.498C217.533 814.055 331.904 872.481 459.912 872.481L462.579 872.472C689.13 871.037 872.404 686.876 872.404 459.989L872.396 458.143C872.391 457.505 872.382 456.868 872.372 456.23ZM459.978 47.4924C232.2 47.4925 47.4864 232.206 47.4863 459.984L47.4932 462.307C47.7578 510.319 56.2204 556.365 71.5264 599.094H71.6875L72.4004 601.056C83.8437 632.525 110.09 656.864 147.428 673.375C184.778 689.892 233.033 698.475 287.972 698.475L291.382 698.464C363.165 698.003 445.873 683.024 530.087 652.371C637.561 613.275 726.797 556.124 784.208 495.483C841.757 434.697 866.694 371.167 847.638 318.913L846.179 314.911H846.241C787.721 159.226 637.934 48.3684 462.065 47.4973L459.978 47.4924Z" fill="url(#paint0_linear_8726_858)"/>
<path d="M1168.09 626.849L1246.72 545.667C1274.25 605.082 1327.29 622.926 1394.14 622.926C1452.08 622.926 1484.53 605.082 1484.53 578.364C1484.53 555.57 1458.02 541.744 1386.25 526.89C1232.9 496.155 1181.81 448.697 1181.81 366.487C1181.81 284.278 1257.47 207.019 1402.94 207.019C1515.96 207.019 1576.88 240.65 1622.13 312.023L1538.59 383.303C1510.12 331.829 1470.81 306.045 1404.89 306.045C1349.82 306.045 1316.44 327.811 1316.44 353.595C1316.44 379.379 1341.01 397.129 1423.53 414.038C1567.05 442.718 1620.09 486.345 1620.09 568.555C1620.09 657.678 1542.48 722.044 1395.99 722.044C1294.74 722.044 1213.15 694.299 1168 626.943L1168.09 626.849Z" fill="white"/>
<path d="M2788.03 387.133L2788.03 711.955L2653.41 711.955L2653.41 426.743C2653.41 341.544 2617.06 313.892 2565.98 313.892C2508.96 313.892 2452.96 351.54 2452.96 450.565L2452.96 711.955L2318.33 711.955L2318.33 1.87576e-05L2452.96 1.73813e-05L2452.96 301C2484.39 237.661 2541.41 206.926 2611.22 206.926C2713.4 206.926 2788.13 267.368 2788.13 387.133L2788.03 387.133Z" fill="white"/>
<path d="M3346.83 515.866L2998.87 515.866C3012.59 587.146 3055.89 620.87 3121.72 620.87C3178.74 620.87 3216.1 599.104 3229.83 559.493L3339.88 600.131C3308.45 679.352 3232.79 721.951 3121.72 721.951C2958.54 721.951 2866.19 626.849 2866.19 464.485C2866.19 302.121 2955.66 207.019 3113.84 207.019C3272.01 207.019 3350.73 300.066 3350.73 462.523C3350.73 476.35 3348.78 503.161 3346.83 515.96L3346.83 515.866ZM2997.94 420.765L3226.95 420.765C3216.1 346.496 3174.85 306.885 3112.91 306.885C3050.98 306.885 3008.7 345.468 2997.94 420.765Z" fill="white"/>
<path d="M3761.46 217.854L3744.77 336.685C3731.05 327.81 3708.43 321.831 3682.84 321.831C3623.87 321.831 3564.9 365.365 3564.9 455.515L3564.9 712.047L3430.28 712.047L3430.28 216.827L3547.29 216.827L3547.29 313.89C3572.88 245.6 3631.75 206.924 3708.43 206.924C3730.03 206.924 3749.69 210.848 3761.46 217.854Z" fill="white"/>
<path d="M4265.75 515.866L3917.78 515.866C3931.51 587.146 3974.81 620.87 4040.63 620.87C4097.65 620.87 4135.02 599.104 4148.74 559.493L4258.8 600.131C4227.36 679.352 4151.71 721.951 4040.63 721.951C3877.45 721.951 3785.11 626.849 3785.11 464.485C3785.11 302.121 3874.58 207.019 4032.75 207.019C4190.93 207.019 4269.64 300.066 4269.64 462.523C4269.64 476.35 4267.7 503.161 4265.75 515.96L4265.75 515.866ZM3916.86 420.765L4145.87 420.765C4135.02 346.496 4093.76 306.885 4031.83 306.885C3969.89 306.885 3927.61 345.468 3916.86 420.765Z" fill="white"/>
<path d="M2237.57 463.456C2237.57 625.82 2129.19 721.949 1999.48 721.949C1926.79 721.949 1864.39 685.329 1835.93 629.837L1835.93 920L1701.3 920L1701.3 216.827L1835.93 216.827L1835.93 301.559C1863.46 238.22 1920.85 206.924 1999.48 206.924C2130.21 206.924 2237.57 302.026 2237.57 463.456ZM2111.2 464.483C2111.2 363.496 2040.18 310.994 1968.42 310.994C1896.66 310.994 1835.83 363.496 1835.83 459.532L1835.83 469.435C1835.83 563.509 1897.58 617.973 1968.42 617.973C2039.25 617.973 2111.2 565.471 2111.2 464.483Z" fill="white"/>
<defs>
<linearGradient id="paint0_linear_8726_858" x1="249" y1="214.5" x2="826" y2="920" gradientUnits="userSpaceOnUse">
<stop stop-color="#2970FF"/>
<stop offset="1" stop-color="#DDEDFF"/>
</linearGradient>
</defs>
</svg>
